<svg width="189" height="43" viewBox="0 0 189 43" fill="none" xmlns="http://www.w3.org/2000/svg">
<path d="M58.7756 18.2472C58.679 17.8892 58.5369 17.5739 58.3494 17.3011C58.1619 17.0227 57.9318 16.7869 57.6591 16.5938C57.3864 16.4006 57.0739 16.2557 56.7216 16.1591C56.3693 16.0568 55.983 16.0057 55.5625 16.0057C54.7159 16.0057 53.983 16.2102 53.3636 16.6193C52.75 17.0284 52.2756 17.625 51.9403 18.4091C51.6051 19.1875 51.4375 20.1335 51.4375 21.2472C51.4375 22.3665 51.5994 23.321 51.9233 24.1108C52.2472 24.9006 52.7159 25.5028 53.3295 25.9176C53.9432 26.3324 54.6875 26.5398 55.5625 26.5398C56.3352 26.5398 56.9886 26.4148 57.5227 26.1648C58.0625 25.9091 58.4716 25.5483 58.75 25.0824C59.0284 24.6165 59.1676 24.0682 59.1676 23.4375L59.9517 23.5312H55.7074V20.4545H63.233V22.7642C63.233 24.3267 62.9006 25.6648 62.2358 26.7784C61.5767 27.892 60.6676 28.7472 59.5085 29.3438C58.3551 29.9403 57.0284 30.2386 55.5284 30.2386C53.8636 30.2386 52.4006 29.8778 51.1392 29.1562C49.8778 28.4347 48.8949 27.4062 48.1903 26.071C47.4858 24.7301 47.1335 23.1392 47.1335 21.2983C47.1335 19.8665 47.3466 18.5966 47.7727 17.4886C48.1989 16.375 48.7926 15.4318 49.554 14.6591C50.321 13.8864 51.2074 13.3011 52.2131 12.9034C53.2244 12.5057 54.3125 12.3068 55.4773 12.3068C56.4886 12.3068 57.429 12.4517 58.2983 12.7415C59.1733 13.0312 59.946 13.4403 60.6165 13.9688C61.2926 14.4972 61.8409 15.125 62.2614 15.8523C62.6818 16.5795 62.9432 17.3778 63.0455 18.2472H58.7756ZM68.956 30H64.4219L70.3111 12.5455H75.9276L81.8168 30H77.2827L73.1832 16.9432H73.0469L68.956 30ZM68.3509 23.1307H77.8281V26.3352H68.3509V23.1307ZM83.696 12.5455H88.9205L93.3523 23.3523H93.5568L97.9886 12.5455H103.213V30H99.1051V19.2784H98.9602L94.767 29.8892H92.142L87.9489 19.2188H87.804V30H83.696V12.5455ZM105.844 30V12.5455H118.015V15.9716H110.063V19.5511H117.393V22.9858H110.063V26.5739H118.015V30H105.844Z" fill="white"/>
<path d="M133.756 17.7784C133.699 17.1534 133.446 16.6676 132.997 16.321C132.554 15.9688 131.92 15.7926 131.097 15.7926C130.551 15.7926 130.097 15.8636 129.733 16.0057C129.369 16.1477 129.097 16.3438 128.915 16.5938C128.733 16.8381 128.639 17.1193 128.634 17.4375C128.622 17.6989 128.673 17.929 128.787 18.1278C128.906 18.3267 129.077 18.5028 129.298 18.6562C129.526 18.804 129.798 18.9347 130.116 19.0483C130.435 19.1619 130.793 19.2614 131.19 19.3466L132.69 19.6875C133.554 19.875 134.315 20.125 134.974 20.4375C135.639 20.75 136.196 21.1222 136.645 21.554C137.099 21.9858 137.443 22.483 137.676 23.0455C137.909 23.608 138.028 24.2386 138.034 24.9375C138.028 26.0398 137.75 26.9858 137.199 27.7756C136.648 28.5653 135.855 29.1705 134.821 29.5909C133.793 30.0114 132.551 30.2216 131.097 30.2216C129.636 30.2216 128.364 30.0028 127.278 29.5653C126.193 29.1278 125.349 28.4631 124.747 27.571C124.145 26.679 123.835 25.5511 123.818 24.1875H127.858C127.892 24.75 128.043 25.2188 128.31 25.5938C128.577 25.9688 128.943 26.2528 129.409 26.446C129.881 26.6392 130.426 26.7358 131.045 26.7358C131.614 26.7358 132.097 26.6591 132.494 26.5057C132.898 26.3523 133.207 26.1392 133.423 25.8665C133.639 25.5937 133.75 25.2812 133.756 24.929C133.75 24.5994 133.648 24.3182 133.449 24.0852C133.25 23.8466 132.943 23.642 132.528 23.4716C132.119 23.2955 131.597 23.1335 130.96 22.9858L129.136 22.5597C127.625 22.2131 126.435 21.6534 125.565 20.8807C124.696 20.1023 124.264 19.0511 124.27 17.7273C124.264 16.6477 124.554 15.7017 125.139 14.8892C125.724 14.0767 126.534 13.4432 127.568 12.9886C128.602 12.5341 129.781 12.3068 131.105 12.3068C132.457 12.3068 133.631 12.5369 134.625 12.9972C135.625 13.4517 136.401 14.0909 136.952 14.9148C137.503 15.7386 137.784 16.6932 137.795 17.7784H133.756ZM139.594 15.9716V12.5455H154.347V15.9716H149.054V30H144.895V15.9716H139.594ZM172.085 21.2727C172.085 23.1932 171.715 24.821 170.977 26.1562C170.238 27.4915 169.238 28.5057 167.977 29.1989C166.721 29.892 165.312 30.2386 163.749 30.2386C162.181 30.2386 160.769 29.8892 159.513 29.1903C158.258 28.4915 157.261 27.4773 156.522 26.1477C155.789 24.8125 155.423 23.1875 155.423 21.2727C155.423 19.3523 155.789 17.7244 156.522 16.3892C157.261 15.054 158.258 14.0398 159.513 13.3466C160.769 12.6534 162.181 12.3068 163.749 12.3068C165.312 12.3068 166.721 12.6534 167.977 13.3466C169.238 14.0398 170.238 15.054 170.977 16.3892C171.715 17.7244 172.085 19.3523 172.085 21.2727ZM167.772 21.2727C167.772 20.1364 167.61 19.1761 167.286 18.392C166.968 17.608 166.508 17.0142 165.906 16.6108C165.309 16.2074 164.59 16.0057 163.749 16.0057C162.914 16.0057 162.195 16.2074 161.593 16.6108C160.991 17.0142 160.528 17.608 160.204 18.392C159.886 19.1761 159.727 20.1364 159.727 21.2727C159.727 22.4091 159.886 23.3693 160.204 24.1534C160.528 24.9375 160.991 25.5312 161.593 25.9347C162.195 26.3381 162.914 26.5398 163.749 26.5398C164.59 26.5398 165.309 26.3381 165.906 25.9347C166.508 25.5312 166.968 24.9375 167.286 24.1534C167.61 23.3693 167.772 22.4091 167.772 21.2727ZM174.548 30V12.5455H181.758C183.065 12.5455 184.192 12.8011 185.141 13.3125C186.096 13.8182 186.832 14.5256 187.349 15.4347C187.866 16.3381 188.124 17.3892 188.124 18.5881C188.124 19.7926 187.86 20.8466 187.332 21.75C186.809 22.6477 186.062 23.3437 185.09 23.8381C184.119 24.3324 182.965 24.5795 181.63 24.5795H177.181V21.2557H180.846C181.482 21.2557 182.013 21.1449 182.44 20.9233C182.871 20.7017 183.198 20.392 183.42 19.9943C183.641 19.5909 183.752 19.1222 183.752 18.5881C183.752 18.0483 183.641 17.5824 183.42 17.1903C183.198 16.7926 182.871 16.4858 182.44 16.2699C182.008 16.054 181.477 15.946 180.846 15.946H178.766V30H174.548Z" fill="#FF0000"/>
<path d="M39.4167 25.0833H25.0833V39.4167H39.4167V25.0833ZM11.6458 3.58333L19.7083 17.9167H3.58333L11.6458 3.58333ZM32.25 17.9167C34.1507 17.9167 35.9736 17.1616 37.3176 15.8176C38.6616 14.4736 39.4167 12.6507 39.4167 10.75C39.4167 8.84928 38.6616 7.02641 37.3176 5.6824C35.9736 4.33839 34.1507 3.58333 32.25 3.58333C30.3493 3.58333 28.5264 4.33839 27.1824 5.6824C25.8384 7.02641 25.0833 8.84928 25.0833 10.75C25.0833 12.6507 25.8384 14.4736 27.1824 15.8176C28.5264 17.1616 30.3493 17.9167 32.25 17.9167Z" stroke="white" stroke-width="4" stroke-linejoin="round"/>
<path d="M3.58333 25.0833L17.9167 39.4167M17.9167 25.0833L3.58333 39.4167" stroke="white" stroke-width="4" stroke-linecap="round" stroke-linejoin="round"/>
</svg>
